<?xml version="1.0" encoding="utf-8"?>
<!-- Generator: Adobe Illustrator 16.0.3, SVG Export Plug-In . SVG Version: 6.00 Build 0)  -->
<!DOCTYPE svg PUBLIC "-//W3C//DTD SVG 1.1//EN" "http://www.w3.org/Graphics/SVG/1.1/DTD/svg11.dtd">
<svg version="1.1" id="Layer_1" xmlns="http://www.w3.org/2000/svg" xmlns:xlink="http://www.w3.org/1999/xlink" x="0px" y="0px"
	 width="214px" height="111px" viewBox="150.456 87.371 214 111" enable-background="new 150.456 87.371 214 111"
	 xml:space="preserve">
<g>
	<g>
		<rect x="224.061" y="143.636" fill="#ED1C24" width="4.458" height="4.58"/>
		<path fill="none" d="M330.739,136.232v-0.015c0,0-0.003,0-0.006,0L330.739,136.232z"/>
		<path fill="#ED1C24" d="M269.836,107.073c-0.583-0.73-1.397-1.1-2.424-1.1c-2.758,0-6.277,2.331-10.458,6.931l-0.344-0.197
			c0.991-3.154,1.495-5.477,1.495-6.905c0-1.604-0.327-3-0.973-4.146c-0.796-1.421-1.901-2.109-3.377-2.109
			c-2.156,0-5.773,3.016-10.751,8.967l-0.464,0.557l0.107-0.717c0.22-1.431,0.33-2.818,0.33-4.118c0-6.621-2.879-9.839-8.801-9.839
			c-1.429,0-2.834,0.156-4.176,0.461c-1.849,0.445-2.787,1.065-2.787,1.846c0,1.507,0.854,1.685,3.997,0.825
			c1.313-0.353,2.293-0.527,2.995-0.527c2.313,0,3.967,0.683,4.922,2.03c0.799,1.094,1.208,2.868,1.208,5.27
			c0,3.151-0.704,6.586-2.088,10.214c-3.038,4.111-5.758,8.126-8.118,11.983c-2.269,3.746-3.417,6.032-3.417,6.792
			c0,0.912,0.414,1.337,1.305,1.337c0.392,0,0.726-0.155,1.025-0.475c4.873-5.318,8.674-11.335,11.303-17.876
			c6.574-9.47,10.966-14.055,13.447-14.055c1.109,0,1.674,1.194,1.674,3.551c0,3.403-1.505,8.311-4.471,14.583
			c-2.824,3.981-5.239,7.825-7.201,11.458c-0.119,0.234-0.179,0.461-0.179,0.672c0,0.889,0.424,1.302,1.336,1.302
			c1.804,0,4.425-3.727,7.785-11.078c6.59-9.47,11.341-14.058,14.543-14.058l0.513,0.182c0.233,0.359,0.298,0.68,0.298,1.055
			c0,1.854-1.005,4.727-3.074,8.785c-1.252,2.483-3.137,5.798-5.595,9.844c-2.618,4.324-2.958,5.073-2.984,5.194
			c0.002,0.891,0.416,1.316,1.309,1.316c0.936,0,2.998-1.938,7.518-11.168c3.563-7.276,5.367-12.056,5.367-14.203
			C270.629,108.61,270.364,107.74,269.836,107.073z"/>
		<path fill="#ED1C24" d="M273.672,120.769c-0.454,0-1.598,0.836-4.174,6.443c-1.896,4.121-2.855,6.715-2.855,7.715
			c0,0.343,0.141,0.625,0.43,0.865c0.689,0.577,1.522,0.496,2.073-0.335c0.195-0.633,1.179-2.903,3.166-7.312
			c2.36-5.226,2.674-6.014,2.7-6.111C275.006,121.183,274.581,120.769,273.672,120.769z"/>
		<path fill="#ED1C24" d="M279.749,114.679c0.435-0.459,0.646-0.947,0.646-1.493c0-0.525-0.166-0.952-0.511-1.302
			c-0.344-0.354-0.755-0.522-1.258-0.522c-0.575,0-1.063,0.213-1.498,0.656c-0.433,0.432-0.642,0.923-0.642,1.498
			c0,0.506,0.173,0.931,0.522,1.294C277.755,115.562,278.929,115.539,279.749,114.679z"/>
		<path fill="#ED1C24" d="M289.058,128.299c-0.706,0-2.156,0.335-4.314,0.994c-2.171,0.675-3.854,1.018-4.994,1.018
			c-0.44,0-0.88-0.084-1.312-0.248c-0.061-1.706,0.788-3.042,2.397-4.171c0.525-0.388,1.959-1.149,4.247-2.26
			c1.883-0.912,2.162-1.516,2.162-1.792c0-0.864-0.436-1.268-1.369-1.268c-1.931,0-4.136,1.097-6.56,3.261
			c-2.421,2.157-3.648,4.2-3.648,6.075c0,3.158,3.479,3.799,10.33,2.112c3.715-0.91,4.495-1.87,4.495-2.515
			C290.492,128.681,290.036,128.299,289.058,128.299z"/>
		<path fill="#ED1C24" d="M313.117,128.428c-0.298-0.29-0.635-0.43-1.03-0.43c-0.09,0.003-0.566,0.124-3.031,1.221
			c-1.898,0.847-3.262,1.258-4.165,1.258l-0.291-0.034c-0.271-0.828,0.229-2.078,1.358-3.987c1.297-1.545,1.941-2.697,1.941-3.446
			c0-0.759-0.354-1.194-1.115-1.374c-0.253-1.023-0.866-1.434-2.026-1.434c-2.378,0-5.097,1.189-8.072,3.535
			c-3.104,2.468-4.678,4.883-4.678,7.174c0,0.997,0.33,1.756,1.013,2.32c0.684,0.567,1.534,0.854,2.531,0.854
			c1.176,0,3.113-1.076,5.763-3.201l0.257-0.203L301.64,131c0.569,2.616,2.953,3.125,8.3,1.057c2.989-1.176,3.617-2.076,3.617-2.621
			C313.557,129.045,313.413,128.716,313.117,128.428z M304.115,123.733c-0.172,0.237-0.331,0.495-0.481,0.778
			c-1.149,1.381-2.463,2.718-3.929,4.008c-1.608,1.418-2.821,2.286-3.709,2.645l-0.912,0.016h-0.198l-0.006-0.197
			c-0.048-1.674,1.005-3.293,3.13-4.809c1.674-1.176,3.654-2.104,5.888-2.753l0.563-0.163L304.115,123.733z"/>
		<path fill="#ED1C24" d="M331.904,135.315l9.956-19.752c5.755-11.448,8.705-17.504,8.766-18.005
			c0.021-0.435-0.069-0.77-0.271-0.989c-0.208-0.224-0.545-0.35-1.01-0.369h-0.003c-0.594,0-0.974,0.234-1.215,0.72
			c-3.316,6.591-6.649,13.175-9.995,19.76c-7.144,14.237-8.692,17.646-8.734,17.997c-0.019,0.438,0.074,0.767,0.274,0.986
			c0.205,0.224,0.545,0.348,1.008,0.367l0.054,0.188c0.003,0,0.003,0,0.003,0l0.003-0.185
			C331.277,136.032,331.656,135.798,331.904,135.315z"/>
		<path fill="#ED1C24" d="M359.378,128.428c-0.304-0.29-0.642-0.43-1.03-0.43c-0.111,0.003-0.653,0.164-3.032,1.221
			c-1.896,0.847-3.259,1.258-4.163,1.258l-0.293-0.034c-0.275-0.823,0.226-2.072,1.355-3.987c1.3-1.542,1.947-2.691,1.947-3.446
			c0-0.746-0.365-1.196-1.119-1.374c-0.218-0.715-0.479-1.434-2.024-1.434c-2.381,0-5.1,1.189-8.076,3.535
			c-3.104,2.471-4.68,4.883-4.68,7.174c0,0.997,0.332,1.756,1.016,2.32c0.686,0.567,1.539,0.854,2.533,0.854
			c1.176,0,3.113-1.076,5.764-3.201l0.257-0.206L347.9,131c0.56,2.618,2.93,3.125,8.3,1.057c2.993-1.176,3.619-2.076,3.619-2.621
			C359.819,129.048,359.674,128.716,359.378,128.428z M350.377,123.735c-0.177,0.237-0.341,0.493-0.484,0.772
			c-1.149,1.384-2.463,2.721-3.929,4.01c-1.604,1.418-2.815,2.283-3.709,2.645l-0.912,0.016h-0.198l-0.005-0.197
			c-0.045-1.677,1.007-3.293,3.129-4.809c1.666-1.176,3.646-2.101,5.89-2.753l0.578-0.166L350.377,123.735z"/>
		<g>
			<path fill="#6D6E71" d="M170.308,177.895c-7.063,0-9.85-3.436-9.787-10.367h3.955c0,4.47,1.036,7.451,6.024,7.451
				c3.76,0,5.574-2.142,5.574-5.769c0-8.553-14.709-6.349-14.709-17.172c0-6.024,4.146-8.165,9.85-8.165
				c6.479,0,8.553,4.471,8.553,9.459h-3.823c-0.194-4.145-1.297-6.35-5.702-6.35c-2.787,0-4.988,1.814-4.988,4.73
				c0,8.165,14.709,5.964,14.709,16.913C179.963,174.783,176.399,177.895,170.308,177.895z"/>
			<path fill="#6D6E71" d="M184.211,147.633v-3.111h5.249v-6.738l3.889-1.685v8.423h6.609v3.111h-6.609v20.994
				c0,4.342,0.454,5.378,3.564,5.378c1.294,0,2.2-0.065,3.045-0.192v3.371c-1.167,0.125-2.462,0.191-3.694,0.191
				c-5.249,0-6.805-2.334-6.805-6.352v-23.392L184.211,147.633L184.211,147.633z"/>
			<path fill="#6D6E71" d="M209.383,148.93h0.129c1.622-3.111,5.058-5.057,9.009-5.057v3.955c-5.507-0.453-9.139,2.851-9.139,8.357
				v21.061h-3.886v-32.725h3.886L209.383,148.93L209.383,148.93z"/>
			<path fill="#6D6E71" d="M239.941,177.245h-3.889v-32.724h3.889v4.017h0.129c1.881-2.72,4.406-4.666,7.907-4.666
				c8.1,0,8.94,6.026,8.94,10.304v23.069h-3.887v-22.874c0-3.823-1.492-7.389-6.026-7.389c-3.498,0-7.063,2.399-7.063,9.719V177.245
				L239.941,177.245z"/>
			<path fill="#6D6E71" d="M281.513,144.458h3.823c-0.129,3.108-0.195,4.729-0.195,6.412v27.541c0,7.19-2.202,11.469-11.534,11.469
				c-8.163,0-9.785-5.764-9.525-9.069h3.889c-0.258,3.76,2.528,5.961,6.156,5.961c7.583,0,7.13-4.084,7.13-13.865h-0.133
				c-1.686,2.783-4.792,3.949-7.903,3.949c-9.396,0-10.045-8.1-10.045-15.354c0-7.582,0.066-7.646,0.973-11.147
				c0.324-1.359,2.591-6.479,9.201-6.479c3.307,0,6.61,1.688,8.036,4.603l0.13,0.127L281.513,144.458L281.513,144.458z
				 M267.063,160.141c0,6.801,0,13.605,7.063,13.605c3.241,0,5.313-2.139,5.896-3.693c0.972-2.525,1.231-4.018,1.231-13.609
				c0-6.867-3.693-9.459-7.324-9.459C267.192,146.984,267.063,155.279,267.063,160.141z"/>
			<path fill="#6D6E71" d="M309.671,173.229h-0.131c-2.074,3.11-5.249,4.666-9.268,4.666c-5.831,0-9.006-3.955-9.006-9.654
				c0-11.469,11.535-10.305,18.145-10.822v-2.723c0-4.795-1.427-7.711-6.608-7.711c-3.564,0-6.415,1.75-6.415,5.638h-4.147
				c0.324-6.286,5.185-8.749,10.888-8.749c3.304,0,10.174,0.324,10.174,8.686v16.455c0,2.336,0,4.408,0.388,8.231h-4.018
				L309.671,173.229L309.671,173.229z M309.411,160.527c-5.573,0.192-13.997-0.452-13.997,7.518c0,3.694,1.88,6.739,5.897,6.739
				c4.468,0,8.1-4.019,8.1-8.295V160.527L309.411,160.527z"/>
			<path fill="#6D6E71" d="M324.714,148.93h0.129c1.622-3.111,5.057-5.057,9.01-5.057v3.955c-5.509-0.453-9.139,2.851-9.139,8.357
				v21.061h-3.888v-32.725h3.888V148.93z"/>
			<path fill="#6D6E71" d="M337.971,164.416v-7.777c0-4.146,0.063-12.766,11.271-12.766c11.211,0,11.276,8.619,11.276,12.766v7.777
				c0,8.49-2.916,13.479-11.276,13.479C340.886,177.895,337.971,172.906,337.971,164.416z M355.854,170.443
				c0.648-1.621,0.778-7.52,0.778-9.592c0-9.654-0.972-13.867-7.39-13.867c-6.413,0-7.387,4.213-7.387,13.867
				c0,2.072,0.132,7.971,0.777,9.592c0.325,0.775,1.23,4.341,6.608,4.341C354.621,174.783,355.53,171.219,355.854,170.443z"/>
		</g>
		<g>
			<path fill="#ED1C24" d="M357.174,189.646c-0.231-0.519-0.619-0.773-1.185-0.778c-7.379-0.074-14.754-0.173-22.142-0.274
				c-3.385-0.031-17.006-0.056-37.279-0.063v-0.012c-1.187-0.009-2.131-0.014-2.863-0.014c-2.583,0-2.68,0.055-2.823,0.133
				c-0.451,0.217-0.71,0.459-0.817,0.754c-0.107,0.303-0.071,0.684,0.116,1.133c0.234,0.55,0.619,0.824,1.181,0.832
				c0.155,0.002,0.293-0.006,0.443-0.006v0.019c23.826,0.026,42.313,0.054,44.688,0.079c5.542,0.056,9.938,0.084,13.19,0.084
				c5.598,0,6.684-0.088,6.834-0.137C357.329,191.042,357.537,190.484,357.174,189.646z"/>
			<path fill="#ED1C24" d="M255.356,188.611l-5.146-0.086c-45.698,0.013-87.933,0.072-88.705,0.16
				c-0.354,0.162-0.611,0.393-0.719,0.67c-0.108,0.285-0.072,0.644,0.115,1.064c0.234,0.518,0.619,0.775,1.182,0.782
				c3.683,0.042,46.148,0.082,87.215,0.124c0.303,0,0.609,0,0.912,0c5.465,0,5.491-0.111,5.674-0.172
				c0.812-0.355,1.02-0.916,0.657-1.76C256.308,188.875,255.921,188.617,255.356,188.611z"/>
		</g>
		<g>
			<path fill="#6D6E71" d="M224.346,177.355v-25.399h3.889v25.399H224.346z"/>
		</g>
	</g>
	<g>
		<g>
			<path fill="#EC2227" d="M326.943,129.458c-2.121,1.334-5.652,2.76-8.061,1.442c-3.385-1.85,2.37-6.342,4.189-6.985
				c1.054-0.373,2.143-0.651,3.237-0.86c0.434-0.082,0.867-0.113,1.308-0.122c0.984-0.021-0.135,0.118,0.131-0.454
				c-1.391,2.994-6.488,4.747-9.478,4.133c-1.61-0.331-2.297,2.135-0.681,2.467c4.229,0.87,11.272-1.503,12.687-6.099
				c1.24-4.039-6.058-2.123-7.552-1.646c-3.533,1.128-9.302,5.745-6.753,10.037c2.535,4.274,8.869,2.43,12.262,0.293
				C329.625,130.79,328.343,128.575,326.943,129.458L326.943,129.458z"/>
		</g>
	</g>
</g>
</svg>
