<?xml version="1.0" encoding="utf-8"?>
<!-- Generator: Adobe Illustrator 16.0.0, SVG Export Plug-In . SVG Version: 6.00 Build 0)  -->
<!DOCTYPE svg PUBLIC "-//W3C//DTD SVG 1.1//EN" "http://www.w3.org/Graphics/SVG/1.1/DTD/svg11.dtd">
<svg version="1.1" id="Layer_1" xmlns="http://www.w3.org/2000/svg" xmlns:xlink="http://www.w3.org/1999/xlink" x="0px" y="0px"
	 width="526.827px" height="292.485px" viewBox="0 0 526.827 292.485" enable-background="new 0 0 526.827 292.485"
	 xml:space="preserve">
<g>
	<rect x="189.288" y="144.279" fill="#ED1C24" width="8.71" height="8.948"/>
	<path fill="none" d="M397.711,129.813v-0.031c0,0-0.005,0-0.011,0L397.711,129.813z"/>
	<path fill="#ED1C24" d="M278.721,72.842c-1.139-1.427-2.73-2.148-4.734-2.148c-5.388,0-12.265,4.554-20.434,13.542l-0.67-0.386
		c1.937-6.161,2.921-10.699,2.921-13.491c0-3.137-0.639-5.862-1.901-8.103c-1.556-2.776-3.714-4.121-6.599-4.121
		c-4.213,0-11.28,5.893-21.006,17.519l-0.906,1.087l0.211-1.401c0.428-2.797,0.644-5.506,0.644-8.046
		c0-12.935-5.625-19.224-17.194-19.224c-2.792,0-5.538,0.304-8.159,0.901c-3.611,0.87-5.445,2.081-5.445,3.605
		c0,2.946,1.669,3.292,7.809,1.612c2.565-0.69,4.481-1.03,5.852-1.03c4.518,0,7.752,1.334,9.617,3.967
		c1.561,2.138,2.359,5.604,2.359,10.297c0,6.155-1.375,12.867-4.08,19.955c-5.934,8.031-11.25,15.876-15.86,23.412
		c-4.43,7.319-6.676,11.785-6.676,13.269c0,1.782,0.809,2.612,2.55,2.612c0.763,0,1.417-0.304,2.004-0.928
		c9.519-10.39,16.947-22.145,22.083-34.924c12.842-18.503,21.424-27.461,26.271-27.461c2.169,0,3.271,2.333,3.271,6.938
		c0,6.65-2.941,16.236-8.736,28.491c-5.517,7.778-10.235,15.288-14.068,22.386c-0.232,0.458-0.35,0.901-0.35,1.313
		c0,1.736,0.829,2.544,2.611,2.544c3.523,0,8.644-7.283,15.211-21.645c12.873-18.503,22.155-27.466,28.414-27.466l0.999,0.355
		c0.458,0.701,0.582,1.329,0.582,2.061c0,3.621-1.963,9.236-6.006,17.163c-2.447,4.853-6.13,11.328-10.931,19.234
		c-5.115,8.448-5.779,9.911-5.831,10.147c0.005,1.741,0.813,2.571,2.555,2.571c1.829,0,5.856-3.786,14.686-21.82
		c6.959-14.217,10.488-23.556,10.488-27.749C280.271,75.845,279.751,74.145,278.721,72.842z"/>
	<path fill="#ED1C24" d="M286.216,99.602c-0.887,0-3.122,1.633-8.154,12.589c-3.704,8.051-5.579,13.12-5.579,15.072
		c0,0.67,0.273,1.221,0.84,1.689c1.345,1.128,2.973,0.969,4.049-0.654c0.381-1.236,2.303-5.671,6.187-14.284
		c4.61-10.21,5.223-11.75,5.274-11.94C288.822,100.41,287.992,99.602,286.216,99.602z"/>
	<path fill="#ED1C24" d="M298.089,87.703c0.85-0.896,1.262-1.849,1.262-2.916c0-1.025-0.324-1.859-0.999-2.545
		c-0.67-0.69-1.474-1.02-2.457-1.02c-1.123,0-2.076,0.417-2.926,1.282c-0.845,0.845-1.252,1.803-1.252,2.926
		c0,0.989,0.335,1.818,1.02,2.529C294.194,89.428,296.486,89.382,298.089,87.703z"/>
	<path fill="#ED1C24" d="M316.277,114.313c-1.381,0-4.214,0.654-8.433,1.942c-4.239,1.319-7.525,1.988-9.756,1.988
		c-0.86,0-1.721-0.165-2.561-0.484c-0.118-3.333,1.54-5.944,4.683-8.149c1.03-0.757,3.827-2.246,8.299-4.415
		c3.678-1.782,4.224-2.961,4.224-3.502c0-1.689-0.85-2.478-2.674-2.478c-3.771,0-8.082,2.143-12.815,6.372
		c-4.729,4.214-7.129,8.206-7.129,11.868c0,6.171,6.794,7.423,20.182,4.126c7.258-1.777,8.782-3.652,8.782-4.914
		C319.079,115.06,318.188,114.313,316.277,114.313z"/>
	<path fill="#ED1C24" d="M363.286,114.565c-0.582-0.566-1.241-0.84-2.015-0.84c-0.175,0.005-1.107,0.242-5.923,2.385
		c-3.709,1.654-6.372,2.457-8.139,2.457l-0.567-0.067c-0.53-1.617,0.448-4.059,2.653-7.789c2.534-3.019,3.796-5.27,3.796-6.732
		c0-1.483-0.69-2.333-2.179-2.684c-0.494-1.999-1.694-2.802-3.961-2.802c-4.646,0-9.957,2.323-15.772,6.907
		c-6.063,4.822-9.139,9.54-9.139,14.017c0,1.947,0.645,3.431,1.979,4.533c1.334,1.108,2.998,1.669,4.944,1.669
		c2.298,0,6.084-2.102,11.261-6.253l0.5-0.396l0.134,0.623c1.112,5.11,5.769,6.104,16.216,2.065c5.841-2.297,7.067-4.054,7.067-5.12
		C364.142,115.771,363.863,115.127,363.286,114.565z M345.695,105.392c-0.335,0.463-0.649,0.968-0.943,1.52
		c-2.245,2.699-4.811,5.311-7.675,7.83c-3.142,2.771-5.512,4.466-7.247,5.167l-1.782,0.031h-0.387l-0.011-0.386
		c-0.093-3.271,1.963-6.434,6.115-9.396c3.271-2.297,7.139-4.11,11.502-5.378l1.103-0.319L345.695,105.392z"/>
	<path fill="#ED1C24" d="M399.987,128.021l19.451-38.592c11.244-22.366,17.009-34.198,17.127-35.177
		c0.041-0.85-0.139-1.504-0.53-1.932c-0.407-0.438-1.066-0.685-1.974-0.721h-0.005c-1.159,0-1.9,0.458-2.374,1.406
		c-6.48,12.878-12.991,25.74-19.528,38.607c-13.954,27.816-16.983,34.476-17.065,35.161c-0.036,0.855,0.145,1.499,0.536,1.927
		c0.401,0.438,1.065,0.68,1.968,0.716l0.107,0.366c0.006,0,0.006,0,0.006,0l0.005-0.361
		C398.762,129.421,399.503,128.963,399.987,128.021z"/>
	<path fill="#ED1C24" d="M453.667,114.565c-0.593-0.566-1.252-0.84-2.014-0.84c-0.217,0.005-1.277,0.319-5.924,2.385
		c-3.704,1.654-6.367,2.457-8.134,2.457l-0.572-0.067c-0.54-1.607,0.438-4.049,2.648-7.789c2.539-3.013,3.807-5.259,3.807-6.732
		c0-1.458-0.717-2.338-2.189-2.684c-0.423-1.396-0.933-2.802-3.956-2.802c-4.651,0-9.962,2.323-15.778,6.907
		c-6.067,4.827-9.143,9.54-9.143,14.017c0,1.947,0.648,3.431,1.983,4.533c1.339,1.108,3.008,1.669,4.95,1.669
		c2.297,0,6.083-2.102,11.26-6.253l0.5-0.401l0.134,0.628c1.092,5.115,5.723,6.104,16.216,2.065c5.847-2.297,7.072-4.054,7.072-5.12
		C454.527,115.776,454.244,115.127,453.667,114.565z M436.081,105.396c-0.345,0.464-0.664,0.963-0.947,1.509
		c-2.246,2.705-4.812,5.316-7.676,7.835c-3.132,2.771-5.501,4.46-7.247,5.167l-1.782,0.031h-0.387l-0.01-0.386
		c-0.088-3.276,1.968-6.434,6.114-9.396c3.255-2.297,7.124-4.105,11.507-5.378l1.129-0.324L436.081,105.396z"/>
	<g>
		<path fill="#6D6E71" d="M84.267,211.21c-13.8,0-19.245-6.712-19.121-20.254h7.727c0,8.731,2.024,14.558,11.77,14.558
			c7.345,0,10.889-4.184,10.889-11.271c0-16.71-28.738-12.403-28.738-33.549c0-11.77,8.103-15.953,19.245-15.953
			c12.661,0,16.71,8.736,16.71,18.482H95.28c-0.381-8.098-2.535-12.404-11.142-12.404c-5.445,0-9.746,3.544-9.746,9.241
			c0,15.953,28.738,11.652,28.738,33.045C103.13,205.132,96.166,211.21,84.267,211.21z"/>
		<path fill="#6D6E71" d="M111.429,152.086v-6.078h10.256v-13.166l7.598-3.292v16.458h12.914v6.078h-12.914v41.019
			c0,8.483,0.886,10.508,6.964,10.508c2.529,0,4.301-0.129,5.95-0.376v6.583c-2.282,0.247-4.811,0.376-7.217,0.376
			c-10.256,0-13.295-4.559-13.295-12.409v-45.7H111.429z"/>
		<path fill="#6D6E71" d="M160.611,154.62h0.252c3.168-6.078,9.88-9.88,17.601-9.88v7.727c-10.76-0.886-17.854,5.568-17.854,16.329
			v41.147h-7.593v-63.936h7.593V154.62z"/>
		<path fill="#6D6E71" d="M220.313,209.943h-7.598v-63.936h7.598v7.85h0.252c3.673-5.316,8.607-9.118,15.448-9.118
			c15.824,0,17.467,11.775,17.467,20.131v45.072h-7.593v-44.691c0-7.469-2.916-14.433-11.775-14.433
			c-6.835,0-13.8,4.688-13.8,18.987V209.943z"/>
		<path fill="#6D6E71" d="M301.535,145.884h7.469c-0.252,6.073-0.381,9.241-0.381,12.528v53.808
			c0,14.052-4.302,22.407-22.536,22.407c-15.948,0-19.116-11.26-18.611-17.72h7.598c-0.504,7.346,4.94,11.646,12.028,11.646
			c14.814,0,13.929-7.979,13.929-27.089h-0.258c-3.292,5.439-9.364,7.716-15.443,7.716c-18.358,0-19.625-15.824-19.625-30
			c0-14.814,0.129-14.938,1.9-21.779c0.634-2.658,5.063-12.662,17.978-12.662c6.459,0,12.914,3.297,15.7,8.994l0.253,0.247V145.884z
			 M273.302,176.522c0,13.29,0,26.585,13.8,26.585c6.331,0,10.379-4.178,11.522-7.217c1.896-4.935,2.406-7.85,2.406-26.59
			c0-13.418-7.217-18.482-14.31-18.482C273.554,150.819,273.302,167.024,273.302,176.522z"/>
		<path fill="#6D6E71" d="M356.549,202.093h-0.253c-4.054,6.078-10.256,9.117-18.106,9.117c-11.394,0-17.596-7.727-17.596-18.863
			c0-22.407,22.536-20.13,35.45-21.145v-5.316c0-9.37-2.787-15.067-12.914-15.067c-6.964,0-12.532,3.42-12.532,11.013h-8.104
			c0.634-12.28,10.128-17.092,21.27-17.092c6.454,0,19.878,0.634,19.878,16.968v32.153c0,4.564,0,8.612,0.757,16.082h-7.85V202.093z
			 M356.044,177.28c-10.89,0.376-27.348-0.886-27.348,14.686c0,7.217,3.673,13.166,11.523,13.166c8.73,0,15.824-7.851,15.824-16.205
			V177.28z"/>
		<path fill="#6D6E71" d="M385.94,154.62h0.253c3.168-6.078,9.879-9.88,17.601-9.88v7.727c-10.761-0.886-17.854,5.568-17.854,16.329
			v41.147h-7.593v-63.936h7.593V154.62z"/>
		<path fill="#6D6E71" d="M411.84,184.878v-15.196c0-8.103,0.124-24.942,22.026-24.942s22.031,16.839,22.031,24.942v15.196
			c0,16.587-5.697,26.332-22.031,26.332C417.537,211.21,411.84,201.465,411.84,184.878z M446.78,196.653
			c1.267-3.168,1.52-14.691,1.52-18.74c0-18.863-1.896-27.095-14.434-27.095c-12.532,0-14.434,8.231-14.434,27.095
			c0,4.049,0.258,15.572,1.52,18.74c0.634,1.515,2.406,8.479,12.914,8.479S446.146,198.168,446.78,196.653z"/>
	</g>
	<g>
		<path fill="#ED1C24" d="M449.36,234.169c-0.453-1.01-1.21-1.51-2.313-1.52c-14.418-0.145-28.825-0.335-43.259-0.536
			c-6.614-0.062-33.225-0.108-72.836-0.123v-0.021c-2.318-0.016-4.162-0.025-5.595-0.025c-5.048,0-5.233,0.104-5.517,0.258
			c-0.881,0.422-1.386,0.896-1.597,1.473c-0.211,0.593-0.14,1.334,0.227,2.215c0.458,1.072,1.21,1.607,2.308,1.623
			c0.304,0.005,0.571-0.01,0.865-0.01v0.035c46.551,0.052,82.67,0.104,87.312,0.154c10.827,0.108,19.414,0.165,25.771,0.165
			c10.936,0,13.058-0.17,13.352-0.268C449.665,236.898,450.071,235.807,449.36,234.169z"/>
		<path fill="#ED1C24" d="M250.431,232.149l-10.055-0.17c-89.284,0.025-171.799,0.144-173.309,0.314
			c-0.69,0.319-1.195,0.767-1.406,1.308c-0.211,0.557-0.139,1.258,0.227,2.082c0.458,1.009,1.21,1.514,2.308,1.529
			c7.196,0.082,90.165,0.16,170.398,0.242c0.592,0,1.19,0,1.782,0c10.678,0,10.729-0.217,11.085-0.335
			c1.587-0.695,1.993-1.792,1.283-3.44C252.29,232.664,251.533,232.16,250.431,232.149z"/>
	</g>
	<g>
		<path fill="#6D6E71" d="M189.844,210.156v-49.625h7.598v49.625H189.844z"/>
	</g>
</g>
<g>
	<g>
		<path fill="#EC2227" d="M390.293,116.576c-4.143,2.608-11.043,5.394-15.748,2.819c-6.611-3.615,4.632-12.391,8.188-13.647
			c2.059-0.728,4.183-1.271,6.325-1.679c0.847-0.161,1.693-0.221,2.554-0.24c1.924-0.042-0.263,0.232,0.256-0.885
			c-2.717,5.849-12.679,9.274-18.516,8.074c-3.147-0.647-4.487,4.172-1.33,4.82c8.262,1.7,22.025-2.936,24.785-11.916
			c2.424-7.891-11.834-4.146-14.754-3.215c-6.903,2.204-18.173,11.225-13.193,19.611c4.954,8.349,17.329,4.748,23.956,0.572
			C395.536,119.18,393.031,114.852,390.293,116.576L390.293,116.576z"/>
	</g>
</g>
</svg>
