<?xml version="1.0" encoding="utf-8"?>
<!-- Generator: Adobe Illustrator 16.0.3, SVG Export Plug-In . SVG Version: 6.00 Build 0)  -->
<!DOCTYPE svg PUBLIC "-//W3C//DTD SVG 1.1//EN" "http://www.w3.org/Graphics/SVG/1.1/DTD/svg11.dtd" [
	<!ENTITY ns_flows "http://ns.adobe.com/Flows/1.0/">
	<!ENTITY ns_extend "http://ns.adobe.com/Extensibility/1.0/">
	<!ENTITY ns_ai "http://ns.adobe.com/AdobeIllustrator/10.0/">
	<!ENTITY ns_graphs "http://ns.adobe.com/Graphs/1.0/">
]>
<svg version="1.1" id="Layer_1" xmlns:x="&ns_extend;" xmlns:i="&ns_ai;" xmlns:graph="&ns_graphs;"
	 xmlns="http://www.w3.org/2000/svg" xmlns:xlink="http://www.w3.org/1999/xlink" xmlns:a="http://ns.adobe.com/AdobeSVGViewerExtensions/3.0/"
	 x="0px" y="0px" width="440px" height="82px" viewBox="0 0 440 82" enable-background="new 0 0 440 82" xml:space="preserve">
<g>
	<g>
		<g>
			<path fill="#939598" d="M32.618,28.97h12.419v2.313h-9.813v11.563h9.123v2.309h-9.123v14.731h-2.606V28.97z"/>
			<path fill="#939598" d="M48.076,44.429c0-5.996-0.69-16.057,8.88-16.057s8.88,10.061,8.88,16.057s0.69,16.056-8.88,16.056
				S48.076,50.425,48.076,44.429z M63.23,44.429c0-7.794,0.078-13.743-6.274-13.743c-6.351,0-6.274,5.949-6.274,13.743
				c0,7.793-0.077,13.748,6.274,13.748C63.308,58.177,63.23,52.222,63.23,44.429z"/>
			<path fill="#939598" d="M76.042,31.283h-7.166V28.97h16.942v2.313h-7.17v28.604h-2.606V31.283z"/>
			<path fill="#939598" d="M88.775,44.429c0-5.996-0.69-16.057,8.88-16.057s8.88,10.061,8.88,16.057s0.69,16.056-8.88,16.056
				S88.775,50.425,88.775,44.429z M103.929,44.429c0-7.794,0.078-13.743-6.274-13.743c-6.351,0-6.274,5.949-6.274,13.743
				c0,7.793-0.077,13.748,6.274,13.748C104.007,58.177,103.929,52.222,103.929,44.429z"/>
			<path fill="#939598" d="M125.775,46.057h-5.944v-2.313h8.551v15.459c-2.606,0.854-5.331,1.282-8.103,1.282
				c-9.571,0-8.88-10.06-8.88-16.056s-0.69-16.057,8.88-16.057c5.62,0,8.51,2.524,8.391,8.521h-2.606
				c0-4.069-1.669-6.207-5.785-6.207c-6.351,0-6.274,5.949-6.274,13.743c0,7.793-0.077,13.748,6.274,13.748
				c2.241,0,4.116-0.345,5.496-0.901V46.057z"/>
			<path fill="#939598" d="M137.004,44.902v14.984h-2.606V28.97h8.103c5.661,0,7.088,1.974,7.088,7.408
				c0,3.857-0.613,6.423-4.563,7.365v0.088c4.116,0.896,4.357,1.411,4.357,12.461c0,1.194,0.206,2.395,0.284,3.595h-2.483
				c-0.242-0.901-0.366-6.037-0.407-7.706c-0.041-1.328,0.814-7.278-4.847-7.278H137.004z M137.004,42.59h4.234
				c3.91,0,5.743-1.071,5.743-6.254c0-4.239-1.591-5.053-4.646-5.053h-5.332V42.59z"/>
			<path fill="#939598" d="M164.887,28.97l9.164,30.917h-2.73l-2.359-8.134h-11.528l-2.318,8.134h-2.606l9.282-30.917H164.887z
				 M168.271,49.44l-5.012-17.473h-0.083l-4.966,17.473H168.271z"/>
			<path fill="#939598" d="M177.374,28.97h12.419v2.313h-9.813v11.563h9.123v2.309h-9.123v14.731h-2.606V28.97z"/>
			<path fill="#939598" d="M196.953,20.749h3.256l-5.821,5.867h-2.035L196.953,20.749z M196.263,28.97v30.917h-2.606V28.97H196.263z
				"/>
			<path fill="#939598" d="M212.375,28.97l9.164,30.917h-2.73l-2.358-8.134h-11.529l-2.318,8.134h-2.606l9.282-30.917H212.375z
				 M215.754,49.44l-5.007-17.473h-0.082l-4.966,17.473H215.754z"/>
		</g>
	</g>
	<g>
		<g>
			<path fill="#939598" d="M283.337,28.97h9.328c3.863,0,6.635,1.417,8.149,4.714c1.221,2.611,1.344,8.777,1.344,9.761
				c0,6.594-0.587,10.405-1.849,12.461c-1.638,2.652-4.703,3.981-9.998,3.981h-6.975V28.97z M287.2,56.462h3.657
				c5.378,0,7.351-2.056,7.351-9.246v-6.254c0-6.254-1.891-8.566-5.924-8.566H287.2V56.462z"/>
			<path fill="#939598" d="M313.274,59.887h-3.863V28.97h3.863V59.887z"/>
			<path fill="#939598" d="M323.515,50.682v0.896c0,4.198,2.602,5.527,5.079,5.527c3.07,0,5.425-1.329,5.425-5.013
				c0-6.851-13.614-6.078-13.614-15.37c0-5.481,3.821-8.392,8.906-8.392c5.547,0,8.653,2.74,8.401,9.035h-4.034
				c0.047-3.384-1.004-5.609-4.661-5.609c-2.313,0-4.662,1.195-4.662,4.538c0,6.81,13.609,5.821,13.609,15.628
				c0,6.506-4.409,8.607-9.411,8.607c-8.947,0.083-8.947-6.896-8.865-9.849H323.515z"/>
			<path fill="#939598" d="M343.919,59.887V28.97h15.628v3.426h-11.765v9.937h10.925v3.426h-10.925v10.704H359.8v3.425H343.919z"/>
			<path fill="#939598" d="M385.915,28.97v30.917h-5.295l-11.971-26.806h-0.088v26.806h-3.446V28.97h5.466l11.806,26.467h0.083
				V28.97H385.915z M382.681,20.878c-0.129,1.2-0.587,2.4-1.304,3.256c-0.716,0.854-1.726,1.411-3.064,1.411
				c-0.928,0-1.979-0.428-3.029-0.814c-1.051-0.427-2.102-0.809-3.023-0.809c-0.969,0-1.808,0.984-1.932,1.927h-1.932
				c0.253-2.617,1.597-4.626,4.368-4.626c1.133,0,2.184,0.387,3.152,0.768c0.963,0.433,1.803,0.813,2.478,0.813
				c1.304,0,2.015-0.597,2.144-1.926H382.681z"/>
			<path fill="#939598" d="M392.782,48.585V38.433c0-6.166,3.11-10.102,9.539-10.102s9.535,3.936,9.535,10.102v10.152
				c0,8.562-3.106,11.945-9.535,11.945S392.782,57.146,392.782,48.585z M407.905,48.755V38.304c0-6.465-4.368-6.676-5.584-6.676
				c-1.221,0-5.589,0.211-5.589,6.676v10.451c0,6.764,1.932,8.479,5.589,8.479C405.974,57.234,407.905,55.519,407.905,48.755z"/>
		</g>
	</g>
	<path fill="#ED1C24" d="M266.498,40.336c-0.418-0.948-1.154-1.401-2.185-1.354l-11.626,0.217l2.405-11.397
		c0.083-0.294,0.093-0.612,0.026-0.953c-0.289-1.527-1.221-2.135-2.776-1.839c-1.01,0.195-1.612,0.807-1.803,1.826l-2.653,12.45
		l-12.718,0.234c-0.31-0.021-0.608,0.041-0.886,0.159c-1.453,0.649-1.854,1.7-1.216,3.15c0.417,0.945,1.159,1.409,2.21,1.396
		l11.615-0.234l-2.421,11.357c-0.082,0.299-0.098,0.598-0.041,0.901c0.299,1.562,1.236,2.189,2.786,1.891
		c1.016-0.195,1.644-0.809,1.865-1.834l2.622-12.414l12.692-0.255c0.304,0.013,0.612-0.049,0.938-0.188
		C266.755,42.816,267.142,41.773,266.498,40.336z"/>
</g>
</svg>
