<?xml version="1.0" encoding="utf-8"?>
<!-- Generator: Adobe Illustrator 16.0.3, SVG Export Plug-In . SVG Version: 6.00 Build 0)  -->
<!DOCTYPE svg PUBLIC "-//W3C//DTD SVG 1.1//EN" "http://www.w3.org/Graphics/SVG/1.1/DTD/svg11.dtd">
<svg version="1.1" id="Layer_1" xmlns="http://www.w3.org/2000/svg" xmlns:xlink="http://www.w3.org/1999/xlink" x="0px" y="0px"
	 width="249px" height="34px" viewBox="97.5 23.5 249 34" enable-background="new 97.5 23.5 249 34" xml:space="preserve">
<g>
	<g>
		<g>
			<path fill="#939598" d="M103.074,33.306h7.804v1.454h-6.167v7.267h5.734v1.451h-5.734v9.257h-1.637V33.306z"/>
			<path fill="#939598" d="M112.788,43.021c0-3.769-0.434-10.091,5.58-10.091s5.581,6.323,5.581,10.091
				c0,3.768,0.434,10.089-5.581,10.089S112.788,46.789,112.788,43.021z M122.311,43.021c0-4.899,0.05-8.637-3.942-8.637
				c-3.991,0-3.943,3.738-3.943,8.637c0,4.897-0.048,8.639,3.943,8.639C122.361,51.66,122.311,47.919,122.311,43.021z"/>
			<path fill="#939598" d="M130.363,34.76h-4.503v-1.454h10.646v1.454H132v17.976h-1.638V34.76z"/>
			<path fill="#939598" d="M138.365,43.021c0-3.769-0.434-10.091,5.58-10.091c6.015,0,5.581,6.323,5.581,10.091
				c0,3.768,0.434,10.089-5.581,10.089C137.931,53.11,138.365,46.789,138.365,43.021z M147.888,43.021
				c0-4.899,0.049-8.637-3.943-8.637c-3.991,0-3.942,3.738-3.942,8.637c0,4.897-0.049,8.639,3.942,8.639
				C147.937,51.66,147.888,47.919,147.888,43.021z"/>
			<path fill="#939598" d="M161.616,44.044h-3.735V42.59h5.374v9.716c-1.638,0.536-3.35,0.805-5.093,0.805
				c-6.014,0-5.581-6.321-5.581-10.089c0-3.769-0.433-10.091,5.581-10.091c3.532,0,5.349,1.586,5.274,5.355h-1.638
				c0-2.557-1.048-3.901-3.636-3.901c-3.99,0-3.942,3.738-3.942,8.637c0,4.897-0.048,8.639,3.942,8.639
				c1.409,0,2.587-0.216,3.454-0.566V44.044z"/>
			<path fill="#939598" d="M168.674,43.319v9.415h-1.639V33.306h5.093c3.558,0,4.454,1.241,4.454,4.656
				c0,2.424-0.385,4.037-2.868,4.628v0.056c2.587,0.563,2.738,0.886,2.738,7.831c0,0.75,0.129,1.505,0.179,2.259h-1.561
				c-0.152-0.566-0.23-3.794-0.256-4.843c-0.026-0.834,0.511-4.573-3.046-4.573H168.674L168.674,43.319z M168.674,41.865h2.66
				c2.458,0,3.61-0.673,3.61-3.93c0-2.664-1-3.175-2.919-3.175h-3.351L168.674,41.865L168.674,41.865z"/>
			<path fill="#939598" d="M186.197,33.306l5.759,19.43h-1.716l-1.482-5.112h-7.245l-1.456,5.112h-1.638l5.833-19.43H186.197z
				 M188.323,46.17l-3.15-10.98h-0.052L182,46.17H188.323z"/>
			<path fill="#939598" d="M194.044,33.306h7.805v1.454h-6.167v7.267h5.733v1.451h-5.733v9.257h-1.638V33.306z"/>
			<path fill="#939598" d="M206.348,28.14h2.046l-3.658,3.687h-1.279L206.348,28.14z M205.914,33.306v19.43h-1.637v-19.43H205.914z"
				/>
			<path fill="#939598" d="M216.039,33.306l5.759,19.43h-1.715l-1.482-5.112h-7.246l-1.457,5.112h-1.638l5.833-19.43H216.039z
				 M218.163,46.17l-3.146-10.98h-0.052l-3.121,10.98H218.163z"/>
		</g>
	</g>
	<g>
		<g>
			<path fill="#939598" d="M260.635,33.306h5.861c2.427,0,4.17,0.891,5.121,2.963c0.768,1.641,0.845,5.517,0.845,6.134
				c0,4.145-0.368,6.539-1.162,7.831c-1.029,1.667-2.955,2.502-6.283,2.502h-4.383L260.635,33.306L260.635,33.306z M263.063,50.584
				h2.298c3.38,0,4.62-1.293,4.62-5.811v-3.931c0-3.93-1.189-5.383-3.724-5.383h-3.194V50.584z"/>
			<path fill="#939598" d="M279.448,52.735h-2.428v-19.43h2.428V52.735z"/>
			<path fill="#939598" d="M285.884,46.951v0.563c0,2.638,1.635,3.474,3.192,3.474c1.929,0,3.408-0.836,3.408-3.15
				c0-4.306-8.555-3.819-8.555-9.659c0-3.444,2.4-5.273,5.597-5.273c3.485,0,5.438,1.722,5.279,5.678h-2.535
				c0.029-2.127-0.631-3.525-2.93-3.525c-1.454,0-2.93,0.751-2.93,2.853c0,4.278,8.554,3.657,8.554,9.82
				c0,4.089-2.771,5.409-5.915,5.409c-5.623,0.053-5.623-4.334-5.571-6.189h2.405V46.951z"/>
			<path fill="#939598" d="M298.706,52.735v-19.43h9.821v2.153h-7.394v6.245h6.865v2.152h-6.865v6.728h7.553v2.152L298.706,52.735
				L298.706,52.735z"/>
			<path fill="#939598" d="M325.098,33.306v19.43h-3.328l-7.522-16.846h-0.056v16.846h-2.165v-19.43h3.435l7.42,16.634h0.053V33.306
				H325.098z M323.066,28.221c-0.081,0.754-0.369,1.508-0.819,2.046c-0.45,0.537-1.085,0.887-1.925,0.887
				c-0.584,0-1.244-0.269-1.904-0.511c-0.661-0.268-1.321-0.508-1.899-0.508c-0.609,0-1.137,0.618-1.215,1.211h-1.214
				c0.159-1.645,1.004-2.907,2.746-2.907c0.711,0,1.372,0.243,1.979,0.483c0.605,0.271,1.134,0.511,1.558,0.511
				c0.819,0,1.266-0.375,1.347-1.21H323.066z"/>
			<path fill="#939598" d="M329.413,45.633v-6.38c0-3.875,1.955-6.348,5.994-6.348c4.041,0,5.993,2.473,5.993,6.348v6.38
				c0,5.381-1.952,7.507-5.993,7.507C331.368,53.14,329.413,51.014,329.413,45.633z M338.917,45.74v-6.568
				c0-4.063-2.745-4.196-3.51-4.196c-0.767,0-3.512,0.132-3.512,4.196v6.568c0,4.25,1.214,5.328,3.512,5.328
				C337.704,51.068,338.917,49.99,338.917,45.74z"/>
		</g>
	</g>
	<path fill="#ED1C24" d="M250.053,40.449c-0.263-0.596-0.726-0.88-1.374-0.851l-7.307,0.137l1.513-7.162
		c0.051-0.185,0.057-0.385,0.016-0.599c-0.181-0.959-0.768-1.342-1.744-1.156c-0.635,0.123-1.014,0.507-1.133,1.147l-1.668,7.824
		l-7.992,0.147c-0.195-0.013-0.383,0.025-0.558,0.1c-0.912,0.408-1.164,1.068-0.764,1.979c0.262,0.593,0.729,0.886,1.389,0.877
		l7.3-0.147l-1.522,7.138c-0.051,0.188-0.061,0.376-0.025,0.566c0.188,0.981,0.777,1.376,1.752,1.189
		c0.637-0.124,1.032-0.51,1.172-1.152l1.647-7.802l7.976-0.161c0.191,0.008,0.386-0.031,0.591-0.119
		C250.214,42.008,250.456,41.352,250.053,40.449z"/>
</g>
</svg>
